<?xml version="1.0" encoding="UTF-8"?>
<!DOCTYPE svg PUBLIC "-//W3C//DTD SVG 1.1//EN" "http://www.w3.org/Graphics/SVG/1.1/DTD/svg11.dtd">
<!-- Creator: CorelDRAW -->
<svg xmlns="http://www.w3.org/2000/svg" xml:space="preserve" width="42.3332mm" height="42.3332mm" version="1.1" style="shape-rendering:geometricPrecision; text-rendering:geometricPrecision; image-rendering:optimizeQuality; fill-rule:evenodd; clip-rule:evenodd"
viewBox="0 0 4233.32 4233.32"
 xmlns:xlink="http://www.w3.org/1999/xlink"
 xmlns:xodm="http://www.corel.com/coreldraw/odm/2003">
 <defs>
  <style type="text/css">
   <![CDATA[
    .fil0 {fill:#787E87}
   ]]>
  </style>
 </defs>
 <g id="Capa_x0020_1">
  <metadata id="CorelCorpID_0Corel-Layer"/>
  <path class="fil0" d="M3274.94 1314.15l0 1959.36c0,295.11 -241.38,536.49 -536.48,536.49l-1185.35 0c-295.1,0 -536.48,-241.38 -536.48,-536.49l0 -1959.36 -144.21 0c-115.06,0 -209.13,-94.07 -209.13,-209.13 0,-115.06 94.07,-209.13 209.13,-209.13l771.67 0c0,-260.96 211.59,-472.56 472.54,-472.56 260.96,0 472.55,211.6 472.55,472.56l771.74 0c115.05,0 209.13,94.07 209.13,209.13 0,115.06 -94.08,209.13 -209.13,209.13l-85.98 0zm-685.76 16.55l0 0c96.75,0 175.82,79.07 175.82,175.82l0 1578.77c0,96.75 -79.07,175.83 -175.82,175.83l0 0c-96.75,0 -175.82,-79.08 -175.82,-175.83l0 -1578.77c0,-96.75 79.07,-175.82 175.82,-175.82zm-945.09 0l0 0c96.74,0 175.82,79.07 175.82,175.82l0 1578.77c0,96.75 -79.08,175.83 -175.82,175.83l0 0c-96.75,0 -175.83,-79.08 -175.83,-175.83l0 -1578.77c0,-96.75 79.08,-175.82 175.83,-175.82z"/>
 </g>
</svg>
