<?xml version="1.0" encoding="UTF-8"?>
<!DOCTYPE svg PUBLIC "-//W3C//DTD SVG 1.1//EN" "http://www.w3.org/Graphics/SVG/1.1/DTD/svg11.dtd">
<!-- Creator: CorelDRAW -->
<svg xmlns="http://www.w3.org/2000/svg" xml:space="preserve" width="42.3332mm" height="42.3332mm" version="1.1" style="shape-rendering:geometricPrecision; text-rendering:geometricPrecision; image-rendering:optimizeQuality; fill-rule:evenodd; clip-rule:evenodd"
viewBox="0 0 4233.32 4233.32"
 xmlns:xlink="http://www.w3.org/1999/xlink"
 xmlns:xodm="http://www.corel.com/coreldraw/odm/2003">
 <defs>
  <style type="text/css">
   <![CDATA[
    .fil0 {fill:#FEFEFE;fill-rule:nonzero}
   ]]>
  </style>
 </defs>
 <g id="Capa_x0020_1">
  <metadata id="CorelCorpID_0Corel-Layer"/>
  <path class="fil0" d="M1951.22 1182.98c0,-91.36 74.06,-165.42 165.41,-165.42 91.36,0 165.42,74.06 165.42,165.42l0 768.24 768.29 0c91.35,0 165.41,74.06 165.41,165.41 0,91.36 -74.06,165.42 -165.41,165.42l-768.29 0 0 768.28c0,91.36 -74.06,165.42 -165.42,165.42 -91.35,0 -165.41,-74.06 -165.41,-165.42l0 -768.28 -768.24 0c-91.36,0 -165.42,-74.06 -165.42,-165.42 0,-91.35 74.06,-165.41 165.42,-165.41l768.24 0 0 -768.24z"/>
 </g>
</svg>
