<?xml version="1.0" encoding="UTF-8"?>
<!DOCTYPE svg PUBLIC "-//W3C//DTD SVG 1.1//EN" "http://www.w3.org/Graphics/SVG/1.1/DTD/svg11.dtd">
<!-- Creator: CorelDRAW -->
<svg xmlns="http://www.w3.org/2000/svg" xml:space="preserve" width="42.3332mm" height="42.3332mm" version="1.1" style="shape-rendering:geometricPrecision; text-rendering:geometricPrecision; image-rendering:optimizeQuality; fill-rule:evenodd; clip-rule:evenodd"
viewBox="0 0 4233.32 4233.32"
 xmlns:xlink="http://www.w3.org/1999/xlink"
 xmlns:xodm="http://www.corel.com/coreldraw/odm/2003">
 <defs>
  <style type="text/css">
   <![CDATA[
    .fil0 {fill:#787E87;fill-rule:nonzero}
   ]]>
  </style>
 </defs>
 <g id="Capa_x0020_1">
  <metadata id="CorelCorpID_0Corel-Layer"/>
  <path class="fil0" d="M1130.49 2134.33c-56.43,-56.12 -56.66,-147.48 -0.55,-203.91 56.12,-56.43 147.48,-56.66 203.91,-0.55l637.76 634.24 0 -1995.72c0,-80.11 64.94,-145.06 145.05,-145.06 80.11,0 145.06,64.95 145.06,145.06l0 1994.55 636.58 -633.07c56.43,-56.11 147.79,-55.88 203.91,0.55 56.12,56.43 55.88,147.79 -0.55,203.91l-880.82 875.9 -1.25 1.32 -1.25 1.25 -0.54 0.55 -2.11 2.03 -0.55 0.55 -2.19 2.03 -0.55 0.47 -2.18 1.96 -0.55 0.47 -2.27 1.87 -0.54 0.47 -2.27 1.8 -0.63 0.47 -2.26 1.72 -0.63 0.46 -2.34 1.65 -0.63 0.46 -2.34 1.57 -0.63 0.39 -2.34 1.56 -0.71 0.39 -2.34 1.49 -0.7 0.39 -2.43 1.41 -0.62 0.31 -2.5 1.33 -0.63 0.39 -2.5 1.25 -0.7 0.31 -2.5 1.25 -0.71 0.31 -2.5 1.1 -0.7 0.31 -2.5 1.09 -0.71 0.24 -2.58 1.01 -0.7 0.32 -2.58 0.94 -0.7 0.23 -2.58 0.86 -0.78 0.23 -2.58 0.79 -0.7 0.23 -2.66 0.7 -0.71 0.24 -2.65 0.7 -0.78 0.16 -2.58 0.62 -0.79 0.16 -2.65 0.55 -0.71 0.15 -2.65 0.47 -0.78 0.08 -2.66 0.47 -0.78 0.08 -2.66 0.39 -0.78 0.08 -2.66 0.31 -0.78 0.08 -2.66 0.15 -0.78 0.08 -2.66 0.16 -0.78 0.08 -2.73 0.07 -0.79 0 -2.65 0.08 -0.78 0 -2.66 -0.08 -0.78 0 -2.74 -0.07 -0.78 -0.08 -2.66 -0.16 -0.78 -0.08 -2.66 -0.15 -0.78 -0.08 -2.66 -0.31 -0.78 -0.08 -2.65 -0.39 -0.79 -0.08 -2.65 -0.47 -0.79 -0.08 -2.65 -0.47 -0.71 -0.15 -2.65 -0.55 -0.78 -0.16 -2.58 -0.62 -0.79 -0.16 -2.65 -0.7 -0.71 -0.24 -2.65 -0.7 -0.71 -0.23 -2.58 -0.79 -0.78 -0.23 -2.58 -0.86 -0.7 -0.23 -2.58 -0.94 -0.7 -0.32 -2.58 -1.01 -0.71 -0.24 -2.5 -1.09 -0.7 -0.31 -2.5 -1.1 -0.7 -0.31 -2.51 -1.25 -0.7 -0.31 -2.5 -1.25 -0.62 -0.39 -2.51 -1.33 -0.62 -0.31 -2.42 -1.41 -0.71 -0.39 -2.34 -1.49 -0.71 -0.39 -2.34 -1.56 -0.63 -0.39 -2.34 -1.57 -0.63 -0.46 -2.34 -1.65 -0.63 -0.46 -2.26 -1.72 -0.63 -0.47 -2.26 -1.8 -0.55 -0.47 -2.27 -1.87 -0.54 -0.47 -2.19 -1.96 -0.55 -0.47 -2.19 -2.03 -0.54 -0.55 -2.12 -2.03 -0.54 -0.55 -2.58 -2.65 -880.82 -875.82zm2390.32 774.68c0,-79.79 64.8,-144.59 144.59,-144.59 79.8,0 144.59,64.8 144.59,144.59l0 376.72c0,144.27 -59.01,275.5 -153.89,370.38 -94.96,94.96 -226.18,153.89 -370.46,153.89l-2338.04 0c-144.27,0 -275.42,-58.93 -370.38,-153.89 -94.88,-94.88 -153.89,-226.11 -153.89,-370.38l0 -376.72c0,-79.79 64.8,-144.59 144.59,-144.59 79.8,0 144.59,64.8 144.59,144.59l0 376.72c0,64.48 26.57,123.33 69.17,165.92 42.59,42.6 101.45,69.17 165.92,69.17l2338.04 0c64.48,0 123.41,-26.57 166.01,-69.17 42.59,-42.59 69.16,-101.44 69.16,-165.92l0 -376.72z"/>
 </g>
</svg>
