<?xml version="1.0" encoding="UTF-8"?>
<!DOCTYPE svg PUBLIC "-//W3C//DTD SVG 1.1//EN" "http://www.w3.org/Graphics/SVG/1.1/DTD/svg11.dtd">
<!-- Creator: CorelDRAW -->
<svg xmlns="http://www.w3.org/2000/svg" xml:space="preserve" width="42.3332mm" height="42.3332mm" version="1.1" style="shape-rendering:geometricPrecision; text-rendering:geometricPrecision; image-rendering:optimizeQuality; fill-rule:evenodd; clip-rule:evenodd"
viewBox="0 0 4233.32 4233.32"
 xmlns:xlink="http://www.w3.org/1999/xlink"
 xmlns:xodm="http://www.corel.com/coreldraw/odm/2003">
 <defs>
  <style type="text/css">
   <![CDATA[
    .fil0 {fill:#787E87;fill-rule:nonzero}
   ]]>
  </style>
 </defs>
 <g id="Capa_x0020_1">
  <metadata id="CorelCorpID_0Corel-Layer"/>
  <path class="fil0" d="M2116.64 987.8c-1006.77,0 -1657.09,1039.82 -1668.87,1058.76 -15.79,19.93 -24.45,44.63 -24.45,70.1 0,21.81 6.4,43.23 18.31,61.49 0.17,0.21 0.29,0.47 0.47,0.68 1.87,4.01 547.75,1066.7 1674.54,1066.7 1121.96,0 1667.07,-1052.24 1673.73,-1065.16 0.42,-0.77 0.85,-1.5 1.28,-2.27 11.94,-18.21 18.34,-39.63 18.34,-61.44 0,-25.38 -8.57,-50 -24.27,-69.93 -0.05,-0.04 -0.13,-0.12 -0.22,-0.21 -11.77,-18.9 -662.1,-1058.72 -1668.86,-1058.72zm0 338.64c436.43,0 790.23,353.79 790.23,790.22 0,436.44 -353.8,790.23 -790.23,790.23 -436.44,0 -790.23,-353.79 -790.23,-790.23 0,-436.43 353.79,-790.22 790.23,-790.22zm0 451.54c-186.97,0 -338.65,151.68 -338.65,338.68 0,186.97 151.68,338.65 338.65,338.65 187,0 338.68,-151.68 338.68,-338.65 0,-187 -151.68,-338.68 -338.68,-338.68z"/>
 </g>
</svg>
