<?xml version="1.0" encoding="UTF-8"?>
<!DOCTYPE svg PUBLIC "-//W3C//DTD SVG 1.1//EN" "http://www.w3.org/Graphics/SVG/1.1/DTD/svg11.dtd">
<!-- Creator: CorelDRAW -->
<svg xmlns="http://www.w3.org/2000/svg" xml:space="preserve" width="42.3332mm" height="42.3332mm" version="1.1" style="shape-rendering:geometricPrecision; text-rendering:geometricPrecision; image-rendering:optimizeQuality; fill-rule:evenodd; clip-rule:evenodd"
viewBox="0 0 4233.32 4233.32"
 xmlns:xlink="http://www.w3.org/1999/xlink"
 xmlns:xodm="http://www.corel.com/coreldraw/odm/2003">
 <defs>
  <style type="text/css">
   <![CDATA[
    .fil0 {fill:#787E87}
   ]]>
  </style>
 </defs>
 <g id="Capa_x0020_1">
  <metadata id="CorelCorpID_0Corel-Layer"/>
  <path class="fil0" d="M2643.7 3418.16c26.63,15.66 1273.03,155.26 1378.72,171.78l-978.46 372.3 -1630.84 -211.83c-173.23,-23.73 -339.81,-93.16 -473.1,-187.6 -21.34,-15.16 -40.84,-31.88 -62.18,-46.09 -91.04,-60.54 -201.93,-194.38 -271.08,-281.19 -188.11,-236.35 -334.79,-629.37 -374.42,-945.72 -70.05,-559.7 32.78,-1036.48 290.35,-1426.91 66.72,-101.14 165.12,-211.68 261.14,-286.04 182.04,-141.01 307.65,-180.01 540.56,-228.13 126.55,-26.16 251.03,-45.23 380.92,-63.12 282.12,-38.88 515.46,-0.39 728.63,121.78 611.75,350.65 835.96,1105.12 791.52,1836.53 -4.19,68.68 -12.14,127.93 -22.68,195 -50.16,319.48 -156.82,586.65 -374.69,827.39 -36.45,40.29 -137.64,128.79 -184.39,151.85zm938.75 226.13l-555.4 203.62 -1166.72 -148.45 582.77 -187.21 1139.35 132.04zm-800.76 -486.41c-83.87,102.4 -220.3,199.59 -343.17,245.05 -70.95,26.27 -151.19,47.89 -220.45,68.83 29.75,-35.9 74.63,-71.85 122.67,-135.52 76.67,-101.57 148.72,-214.11 200.21,-331.15 11.48,-26.11 74.36,-181.65 75.26,-186.27 20.76,-105.05 62.66,-183.56 81.41,-363.61 11.51,-110.5 14.1,-221.19 13,-330.52 -3.01,-288.7 -46.13,-569.65 -153.18,-824.14 -93.66,-222.6 -196.29,-396.66 -336.95,-545.53 -67.15,-71.11 -141.86,-148.09 -235.72,-208 -47.77,-30.5 -86.19,-53.49 -139.2,-82.9 -21.89,-12.17 -51.77,-24.82 -74.05,-33.91 -19.42,-7.94 -64.06,-22.12 -80.39,-31.44 28.78,-13.7 197.63,-20.71 240.62,-20.87 483,-1.53 877.62,414.12 1041.65,836.51 94.18,242.46 149.7,538.95 150.84,837.68 1.6,418.16 -84.66,790.97 -342.55,1105.79zm-2034.4 -1868.45c-5.4,14.81 -51.29,97.54 -75.61,156 -75.73,181.73 -104.15,398.54 -96.72,599.61 11.32,306.25 121.04,652.59 296.85,868.82 27.14,33.4 49.42,63.63 80.12,90.18 25.02,21.69 10.53,17.85 60.57,58.07 82.78,66.45 147.16,116.41 259.89,152.9 126.91,41.08 271.43,41.74 394.27,-5.83 135.36,-52.39 244.38,-144.69 324.88,-258.4 278.8,-393.92 276.26,-984.79 94.84,-1401.38 -135.13,-310.21 -399.4,-633.13 -768.73,-628.16 -151.53,2.04 -250.8,53.18 -351.23,120.1l-60.27 50.04c-50.55,43.97 -121.23,138.11 -158.86,198.05zm-129.76 -376.1c35,-36.34 67.39,-100.32 153.22,-179.18 70.68,-65 98.95,-91.98 184.86,-145.43 153.89,-95.78 318.34,-135.01 532.92,-122.68 157.65,9.05 338.75,101.38 464.25,190.34 61.55,43.67 114.38,92.02 174.91,155.34 25.96,27.14 50.67,57.33 76.24,88.85 13.24,16.29 21.54,28.39 35.95,46.67 199.74,253.43 337.18,662.26 365.33,1052.81 14.29,198.53 -1.57,431.28 -46.63,614.88 -44.06,179.62 -95.16,326.02 -184.94,480.73 -41.12,70.88 -114.11,176.99 -173.15,239.57 -463.35,490.63 -1074.47,380.95 -1485.7,-135.76 -185.13,-232.63 -336.43,-588.73 -379.03,-950.97 -26.75,-227.15 -18.68,-396.93 6.3,-619.11 14.41,-127.96 86.3,-355.66 145.62,-487.19 5.6,-12.45 -1.88,-7.87 7.48,-10.72 17.94,-59.17 89.12,-167.6 122.37,-218.15zm847.08 134.9c-0.82,1.21 -2.35,1.29 -2.86,3.21 -0.51,1.88 -2.23,2.43 -2.94,3.05l-97.34 79.41c-111.64,115.63 -148.8,187.88 -208.35,354.06 -127.81,356.48 -21.62,890.82 220.21,1177.17 49.97,59.13 124.76,130.79 204.01,172.72 101.58,53.73 181.65,70.13 314.27,62.54 -16.99,38.8 -97.65,110.66 -133.36,137.12 -190.42,141.05 -434.53,125.97 -612.1,-5.95 -94.14,-69.93 -136.74,-113.9 -201.82,-200.64 -21.26,-28.35 -37.59,-52.31 -56.34,-82.85 -157.22,-255.42 -221.67,-573.46 -202.21,-883.19 20.75,-330.4 182.82,-737.63 535.39,-824.68 96.01,-23.69 154.91,-6.34 243.44,8.03zm640.92 1125.6c0,183.69 -30.15,373.64 -97.62,525.06 -23.1,51.84 -13.12,60.81 -69.66,79.99 -278.87,94.57 -526.11,-180.78 -623.26,-416.66 -135.52,-329.08 -162.7,-741.71 36.73,-1047.06 59.75,-91.51 121.19,-150.75 220.41,-197.74 33.87,-16.06 67.71,13.04 108.74,48.12 18.84,16.13 31.76,24.2 47.38,40.37 109.17,112.89 195.87,224.69 266.47,404.38 66.05,168.06 110.81,359.93 110.81,563.54z"/>
 </g>
</svg>
