<?xml version="1.0" encoding="UTF-8"?>
<!DOCTYPE svg PUBLIC "-//W3C//DTD SVG 1.1//EN" "http://www.w3.org/Graphics/SVG/1.1/DTD/svg11.dtd">
<!-- Creator: CorelDRAW -->
<svg xmlns="http://www.w3.org/2000/svg" xml:space="preserve" width="42.3332mm" height="42.3332mm" version="1.1" style="shape-rendering:geometricPrecision; text-rendering:geometricPrecision; image-rendering:optimizeQuality; fill-rule:evenodd; clip-rule:evenodd"
viewBox="0 0 4233.32 4233.32"
 xmlns:xlink="http://www.w3.org/1999/xlink"
 xmlns:xodm="http://www.corel.com/coreldraw/odm/2003">
 <defs>
  <style type="text/css">
   <![CDATA[
    .fil0 {fill:#787E87;fill-rule:nonzero}
   ]]>
  </style>
 </defs>
 <g id="Capa_x0020_1">
  <metadata id="CorelCorpID_0Corel-Layer"/>
  <g id="_2104834936208">
   <g>
    <path class="fil0" d="M3216.5 2734.71l-353.26 0 0 -694.55c0,-81.62 -14.36,-140.87 -43.06,-177.76 -28.7,-36.88 -66.6,-55.32 -113.7,-55.32 -25.02,0 -50.05,5.49 -75.07,16.47 -25.02,11 -49.3,26.3 -72.86,45.92 -23.54,19.62 -44.52,42.77 -62.92,69.45 -18.4,26.69 -32.75,55.73 -43.05,87.13l0 708.66 -353.26 0 0 -1236.05 317.93 0 0 207.18c42.69,-73.77 103.04,-130.66 181.04,-170.69 78.02,-40.03 167.8,-60.04 269.36,-60.04 75.07,0 135.42,14.52 181.04,43.55 45.64,29.05 80.97,66.72 105.99,113.02 25.02,46.31 41.58,96.92 49.67,151.86 8.1,54.93 12.15,108.3 12.15,160.1l0 791.07z"/>
    <path class="fil0" d="M1551.1 2758.25c-98.63,0 -195.76,-16.87 -291.44,-50.62 -95.67,-33.75 -176.63,-82.78 -242.87,-147.15l125.85 -230.73c70.65,51.81 139.46,91.82 206.44,120.07 66.97,28.26 131.36,42.39 193.18,42.39 45.64,0 80.95,-8.64 105.98,-25.9 25.02,-17.27 37.54,-42.38 37.54,-75.34 0,-32.96 -15.83,-59.25 -47.47,-78.87 -31.65,-19.62 -87.21,-40.42 -166.69,-62.39 -78.02,-23.55 -143.89,-46.3 -197.61,-68.28 -53.73,-21.98 -97.52,-46.3 -131.37,-72.98 -33.85,-26.69 -58.14,-57.3 -72.85,-91.83 -14.72,-34.53 -22.08,-75.34 -22.08,-122.42 0,-62.8 11.77,-120.07 35.32,-171.88 23.55,-51.79 55.93,-95.74 97.14,-131.84 41.22,-36.1 90.16,-64.36 146.83,-84.77 56.66,-20.4 118.12,-30.6 184.36,-30.6 86.84,0 168.16,12.55 243.96,37.67 75.81,25.11 149.03,70.63 219.68,136.55l-136.88 226.03c-66.24,-48.66 -125.12,-83.97 -176.63,-105.96 -51.52,-21.96 -101.56,-32.95 -150.13,-32.95 -38.28,0 -70.66,8.24 -97.15,24.72 -26.5,16.48 -39.74,42.77 -39.74,78.87 0,34.54 14.35,60.43 43.05,77.7 28.71,17.26 82.06,36.1 160.07,56.5 82.43,23.55 151.98,47.08 208.64,70.64 56.67,23.54 102.67,49.83 137.99,78.87 35.33,29.03 61.08,62.38 77.28,100.05 16.19,37.69 24.28,82.41 24.28,134.21 0,122.43 -42.68,219.73 -128.05,291.94 -85.37,72.2 -200.91,108.3 -346.63,108.3z"/>
   </g>
   <path class="fil0" d="M947.83 459.01l2337.71 0c133.88,0 255.93,54.94 344.72,143.49l0.88 0.88c88.35,88.8 143.17,210.72 143.17,344.45l0 2337.71c0,133.88 -54.94,255.93 -143.49,344.72l-0.88 0.88c-88.79,88.35 -210.68,143.17 -344.4,143.17l-2337.71 0c-133.89,0 -255.97,-54.94 -344.77,-143.49l-0.88 -0.88c-88.35,-88.79 -143.17,-210.68 -143.17,-344.4l0 -2337.71c0,-133.89 54.94,-255.97 143.49,-344.77l0.88 -0.88c88.8,-88.35 210.72,-143.17 344.45,-143.17zm2337.71 300.11l-2337.71 0c-52.1,0 -99.28,21.05 -133.17,54.98l-0.56 0.56c-33.93,33.89 -54.98,81.07 -54.98,133.17l0 2337.71c0,52.09 21.09,99.27 54.98,133.12l0.56 0.56c33.89,33.94 81.07,54.98 133.17,54.98l2337.71 0c52.09,0 99.27,-21.08 133.12,-54.98l0.56 -0.56c33.9,-33.85 54.98,-81.03 54.98,-133.12l0 -2337.71c0,-52.1 -21.04,-99.28 -54.98,-133.17l-0.56 -0.56c-33.85,-33.89 -81.03,-54.98 -133.12,-54.98z"/>
  </g>
 </g>
</svg>
